<?xml version="1.0" encoding="UTF-8" standalone="no"?>
<!-- Generator: Adobe Illustrator 19.0.0, SVG Export Plug-In . SVG Version: 6.00 Build 0)  -->

<svg
   version="1.1"
   id="Layer_1"
   x="0px"
   y="0px"
   viewBox="0 0 2357.4286 2630.0335"
   xml:space="preserve"
   inkscape:version="1.1 (c68e22c387, 2021-05-23)"
   sodipodi:docname="gist.svg"
   width="2357.4287"
   height="2630.0334"
   inkscape:export-filename="E:\PROJECT\SITE\PERSONAL\GIST\LOGO\gist.png"
   inkscape:export-xdpi="90"
   inkscape:export-ydpi="90"
   xmlns:inkscape="http://www.inkscape.org/namespaces/inkscape"
   xmlns:sodipodi="http://sodipodi.sourceforge.net/DTD/sodipodi-0.dtd"
   xmlns="http://www.w3.org/2000/svg"
   xmlns:svg="http://www.w3.org/2000/svg"
   xmlns:rdf="http://www.w3.org/1999/02/22-rdf-syntax-ns#"
   xmlns:cc="http://creativecommons.org/ns#"
   xmlns:dc="http://purl.org/dc/elements/1.1/"><g
   id="g10492"
   transform="matrix(4.1819592,0,0,4.1819592,-2460.6586,96.71144)"><g
     id="g2237"
     transform="matrix(0.1,0,0,0.1,614.15543,-57.978841)"><g
       id="l5tBtBgrhMWcVE2xoTnH13i"
       fill="#3acc6e"><g
         id="g2197"><path
           id="pCGURwfH3"
           d="m 2510,4489 c -25,-3 -61,-13 -80,-22 -52,-22 -235,-155 -315,-229 -38,-36 -76,-63 -82,-61 -9,3 -13,-5 -12,-24 0,-23 14,-39 76,-87 41,-33 103,-93 138,-135 l 63,-76 253,1 h 252 l 63,76 c 58,70 203,198 225,198 5,0 9,12 9,26 0,16 -5,24 -12,21 -7,-2 -46,27 -87,64 -41,38 -123,103 -182,144 -137,96 -208,120 -309,104 z" /></g></g><g
       id="l62PUcOqbhgpTnfTWFSU385"
       fill="#d839ae"><g
         id="g2204"><path
           id="pqsAycwee"
           d="m 2530,3846 c 0,-24 6,-62 14,-84 19,-54 71,-291 91,-416 47,-296 58,-633 29,-884 -45,-396 -183,-876 -359,-1248 l -52,-111 31,-64 c 47,-95 113,-213 174,-312 85,-138 119,-138 204,0 197,319 405,771 500,1085 13,43 25,78 29,78 3,0 43,-24 90,-54 240,-152 766,-396 855,-396 35,0 63,17 74,45 9,24 -3,417 -16,503 l -6,43 -167,84 c -260,131 -457,260 -643,420 -71,60 -78,70 -78,103 -1,91 -48,310 -96,444 -97,268 -311,570 -532,752 -56,45 -76,56 -106,56 -36,0 -36,0 -36,-44 z" /><path
           id="p3QyjrhzJ"
           d="m 4755,3004 c -152,-31 -389,-56 -580,-62 l -200,-7 1,-40 c 0,-22 17,-93 37,-158 20,-65 51,-188 69,-273 27,-131 34,-154 50,-154 10,0 18,7 18,15 0,18 29,22 190,30 142,7 408,43 584,80 135,28 168,49 187,118 9,34 7,45 -15,91 -27,54 -178,267 -236,334 l -35,40 z" /><path
           id="pC92eRAIg"
           d="M 235,2947 C 178,2881 39,2679 18,2633 -5,2580 5,2528 48,2487 c 24,-23 51,-32 173,-57 197,-39 415,-68 592,-78 110,-6 151,-12 157,-22 5,-8 11,-12 14,-9 3,3 19,70 36,150 16,80 43,191 60,247 16,56 30,119 30,140 v 39 l -162,7 c -232,10 -588,51 -655,77 -19,7 -28,2 -58,-34 z" /><path
           id="p18EO23WVu"
           d="m 1685,2454 c -159,-133 -439,-306 -661,-409 -86,-40 -92,-45 -98,-78 -13,-67 -26,-457 -16,-482 11,-28 39,-45 74,-45 86,0 624,248 837,385 102,66 110,69 121,54 14,-20 4,45 -26,178 -32,135 -56,312 -56,405 v 68 l -42,-1 c -38,0 -53,-8 -133,-75 z" /></g></g><g
       id="l488wIYe1G8rJRcdtDKV8Ew"
       fill="#68d895"><g
         id="g2209"><path
           id="pGN1p4QLU"
           d="m 1465,4289 c -234,-57 -540,-213 -777,-396 -66,-50 -82,-75 -74,-109 9,-36 42,-52 136,-64 140,-17 224,-33 235,-42 5,-5 4,-8 -3,-8 -7,0 -12,-4 -12,-10 0,-21 43,-8 142,44 206,109 365,150 573,150 87,-1 158,-7 215,-19 121,-26 200,-29 283,-11 40,8 96,18 125,22 34,4 52,11 52,20 0,8 -6,14 -14,14 -8,0 -43,35 -78,78 -36,42 -98,104 -139,137 -41,33 -75,63 -77,67 -7,16 -131,78 -207,104 -67,22 -102,27 -210,30 -71,2 -148,-1 -170,-7 z" /><path
           id="p13Qqvj1An"
           d="m 3365,4290 c -189,-38 -395,-167 -533,-332 -35,-43 -70,-78 -78,-78 -8,0 -14,-6 -14,-14 0,-9 20,-16 63,-20 34,-4 93,-14 130,-22 92,-19 141,-18 260,7 135,29 336,31 457,5 144,-31 337,-108 422,-167 28,-20 78,-26 78,-9 0,6 -5,10 -12,10 -7,0 -8,3 -3,8 11,9 95,25 235,42 94,12 127,28 136,64 8,34 -8,59 -74,109 -240,185 -557,346 -782,396 -52,12 -227,12 -285,1 z" /></g></g><g
       id="l4Qxr8AWnOIfGrv8bOV8qxY"
       fill="#f958b8"><g
         id="g2213"><path
           id="pbouYT1oY"
           d="m 1550,3884 c -90,-11 -212,-40 -285,-66 -81,-30 -246,-111 -268,-132 -7,-6 -43,-34 -82,-61 C 796,3542 701,3458 545,3299 410,3161 250,2976 250,2958 c 0,-22 399,-73 668,-84 89,-4 162,-11 162,-15 0,-4 -15,-61 -34,-126 -38,-132 -90,-379 -82,-391 3,-4 -4,-71 -14,-148 -18,-128 -25,-234 -16,-234 13,0 235,110 342,170 172,97 307,187 431,287 57,46 107,83 113,83 6,0 10,-28 10,-68 0,-140 65,-514 94,-537 7,-5 25,-50 40,-99 45,-144 149,-403 233,-577 l 78,-162 51,107 c 178,369 322,866 368,1268 20,175 21,520 1,705 -24,234 -69,479 -117,641 -11,40 -18,75 -15,79 10,9 139,-101 223,-190 216,-230 363,-491 435,-770 25,-98 49,-238 49,-289 0,-33 7,-43 78,-103 115,-100 213,-171 352,-258 131,-82 448,-247 474,-247 21,0 20,22 -3,185 -25,168 -83,439 -127,583 -19,63 -36,119 -37,126 -1,8 56,13 193,17 107,4 238,12 290,18 108,14 353,52 359,57 8,7 -135,170 -274,313 -336,343 -583,500 -895,567 -129,28 -369,25 -519,-5 -110,-23 -115,-23 -195,-7 -242,48 -599,48 -814,0 -76,-17 -93,-16 -222,11 -74,15 -313,27 -380,19 z" /></g></g></g><path
     id="pq4Liqfj5"
     d="m 860.44349,394.37971 c -7.08083,-1.82079 -21.84943,-11.43049 -34.8984,-22.65868 l -6.97968,-6.06928 -6.87853,3.23695 c -21.54597,9.91317 -42.28271,10.11548 -69.08873,0.50577 -21.34367,-7.68776 -63.32291,-33.38108 -68.58296,-42.18155 -4.04619,-6.57506 -1.61848,-15.67899 5.26005,-19.92749 1.82079,-1.11271 6.17044,-2.22541 10.11548,-2.63003 3.74273,-0.40462 6.87853,-1.01155 6.87853,-1.31501 0,-0.40462 -3.33811,-3.43927 -7.28315,-6.67622 -21.64713,-17.80324 -46.43005,-45.72197 -66.76217,-75.36033 -8.80047,-12.7455 -9.91317,-15.17322 -9.91317,-21.24251 0,-8.39585 4.65312,-15.47668 12.13858,-18.51133 7.18199,-3.03464 50.17278,-10.41894 54.32013,-9.30624 3.23695,0.80924 5.76582,4.95659 4.95658,8.09239 -1.01155,3.94503 -4.2485,5.26005 -19.32057,7.48545 -19.92749,3.03465 -34.79725,6.17044 -36.51688,7.89008 -2.73118,2.73118 -1.61848,6.77737 4.45081,15.67899 21.74828,31.76261 51.69011,64.73908 73.6407,81.025 23.36676,17.29747 42.28271,25.38985 65.14369,28.01988 10.21664,1.21386 22.25406,1.31501 22.25406,0.30346 0,-0.50577 -3.1358,-2.42771 -6.87853,-4.45081 -45.31735,-24.47946 -72.02222,-75.25917 -82.03654,-155.67724 -2.52887,-20.53443 -4.14735,-42.28271 -4.14735,-57.75939 0,-10.520105 0.20231,-12.037427 2.32656,-15.072071 6.47391,-9.609706 11.32934,-9.710861 33.07762,-1.011548 17.70209,7.080836 44.00234,19.421729 46.73352,21.950599 4.04619,3.64157 1.01155,11.73395 -4.45081,11.6328 -1.31501,0 -8.90162,-3.23696 -16.99401,-7.08084 -11.73396,-5.66467 -26.80602,-12.03742 -45.2162,-19.118258 -2.52887,-1.011548 -1.01154,34.392638 2.83234,64.536768 11.83511,94.78205 43.69887,141.41441 107.62871,157.70034 6.06929,1.51732 13.85821,3.1358 17.19632,3.54042 l 6.06929,0.70808 -3.1358,-3.43926 c -10.62126,-11.4305 -19.01711,-21.84944 -24.88409,-30.64991 -29.73951,-44.91273 -36.41572,-92.45549 -21.14135,-151.42874 6.17044,-23.67022 15.8813,-48.554309 30.4476,-78.192666 13.45359,-27.412952 24.98523,-47.3404481 30.34644,-52.2970332 3.54042,-3.4392633 4.55196,-3.84388251 9.10393,-3.84388251 4.55197,0 5.56351,0.40461921 9.10393,3.74272771 5.36121,5.0577399 16.89285,24.985236 30.34644,52.398188 25.2887,51.285486 36.82035,90.634706 38.13536,129.478146 0.60693,18.41018 -0.70808,31.15568 -4.75427,47.13814 -6.37275,24.78293 -20.73674,51.69011 -37.93305,71.11183 -3.84389,4.45081 -8.59816,9.81202 -10.5201,12.03742 l -3.54042,3.94504 5.56351,-0.70808 c 14.5663,-1.82079 33.17878,-7.48546 45.72198,-13.75706 16.08361,-8.19354 32.26838,-21.84944 43.1931,-36.41573 21.34361,-28.62681 34.99951,-78.19266 39.45031,-142.32481 1.0116,-15.07206 1.4162,-33.583393 0.7081,-33.583393 -1.7196,0 -36.31453,14.566293 -48.35195,20.332113 -14.56629,7.08084 -15.37553,7.28315 -17.9044,5.86698 -3.84389,-2.12425 -5.05774,-6.17044 -2.83234,-9.50855 3.64158,-5.46236 59.37789,-30.042977 68.58299,-30.245286 5.3612,-0.101155 9.0027,2.023096 12.6443,7.485455 2.1243,3.034644 2.3266,4.551966 2.3266,15.072071 0,25.38985 -3.9451,62.91828 -9.2051,89.522 -6.8785,34.29148 -18.7137,64.33445 -33.27995,84.76772 -11.02586,15.47669 -28.12102,30.64991 -43.69886,39.14691 -3.74273,2.0231 -6.87853,3.94504 -6.87853,4.45081 0,2.12425 26.09794,0 38.64114,-3.23695 36.1123,-9.20509 77.2823,-43.69887 115.7211,-96.70399 12.6443,-17.49978 14.5663,-21.64713 11.127,-25.08639 -1.7196,-1.71964 -16.5894,-4.85543 -36.5169,-7.89008 -15.072,-2.2254 -18.309,-3.54042 -19.3205,-7.48545 -0.8093,-3.1358 1.7196,-7.28315 4.9565,-8.09239 4.1474,-1.1127 47.1382,6.2716 54.3202,9.30624 7.4854,3.03465 12.1385,10.11548 12.1385,18.51133 0,6.06929 -1.1127,8.49701 -9.9131,21.24251 -20.3321,29.63836 -45.1151,57.55709 -66.661,75.36033 -4.0462,3.23695 -7.3843,6.2716 -7.3843,6.67622 0,0.30346 3.1358,0.91039 6.8785,1.31501 3.945,0.40462 8.2947,1.51732 10.1155,2.63003 6.8785,4.14734 9.3062,13.35243 5.3612,19.82634 -5.5635,9.10393 -50.3751,37.12381 -69.1899,43.29425 -14.36398,4.75428 -21.54597,6.06929 -33.07762,6.06929 -13.45359,-0.10115 -21.74829,-1.82079 -34.08917,-7.08084 l -8.39585,-3.64157 -6.97968,6.06929 c -8.80047,7.58661 -21.54597,16.58939 -28.4245,20.02865 -4.34966,2.12425 -7.08084,2.73118 -14.06052,3.03464 -4.75427,0.20231 -10.11548,0 -11.93627,-0.50577 z m 19.82635,-15.27437 c 4.95658,-2.32656 14.97091,-9.10394 23.36676,-16.08362 3.03464,-2.52887 5.66466,-4.65312 5.86697,-4.75427 0.10116,0 -4.75427,-5.1589 -10.82356,-11.32934 l -11.12703,-11.32934 h -17.29747 -17.29747 l -11.12703,11.32934 c -6.06929,6.17044 -10.92472,11.32934 -10.82356,11.32934 0.20231,0.10115 2.83233,2.2254 5.86697,4.75427 8.39585,6.97968 18.41018,13.75706 23.36676,16.08362 5.86698,2.63002 14.16168,2.63002 20.02866,0 z m -86.89198,-18.8148 c 11.32934,-2.52887 23.97369,-9.40739 33.27993,-18.20786 4.45081,-4.2485 8.19354,-8.09239 8.19354,-8.49701 0,-0.40462 -2.93349,-1.31501 -6.57506,-2.02309 -5.46236,-1.01155 -7.68777,-1.01155 -13.85821,0.40462 -10.92472,2.42771 -30.75106,3.64157 -41.06885,2.63002 -18.41018,-1.92194 -34.19033,-6.47391 -49.76817,-14.36398 l -9.50855,-4.95659 -10.72241,1.61848 c -16.89285,2.52887 -17.29747,2.63003 -16.69054,3.54042 0.91039,1.41617 19.9275,14.56629 28.82912,19.9275 21.24251,12.64435 39.04575,19.52287 55.63514,21.54597 7.3843,0.91039 12.64435,0.50577 22.25406,-1.61848 z m 186.73177,-0.40462 c 13.35243,-3.1358 27.91867,-9.40739 44.91267,-19.52287 8.9017,-5.36121 27.9188,-18.51133 28.8292,-19.9275 0.6069,-0.91039 0.2023,-1.01155 -16.7917,-3.54042 l -10.7224,-1.61848 -9.5086,4.85544 c -15.4767,7.99122 -31.86374,12.7455 -49.76814,14.46513 -10.5201,1.01155 -30.24529,-0.30346 -40.9677,-2.63002 -6.17044,-1.41617 -8.39585,-1.41617 -13.85821,-0.40462 -3.64157,0.70808 -6.57506,1.61847 -6.57506,1.92194 0,1.41617 13.75705,14.06052 18.61249,17.19632 12.03742,7.58661 29.63835,12.44204 41.57462,11.53164 3.33811,-0.30346 9.71086,-1.31501 14.26283,-2.32656 z m -100.0421,-49.06008 c 26.19909,-24.3783 43.69887,-54.62359 50.98202,-87.70121 3.03464,-13.85821 3.64157,-36.31458 1.51732,-53.20743 C 928.41952,137.74997 917.19134,103.86311 897.06153,62.996572 887.04721,42.563302 871.57052,14.94804 870.25551,14.94804 c -1.31501,0 -16.7917,27.615262 -26.80602,48.048532 -49.26239,99.940948 -49.16124,168.827368 0.20231,229.924868 6.77737,8.2947 24.98523,26.50256 26.60371,26.50256 0.30346,0 4.75428,-3.84388 9.81202,-8.59816 z"
     style="fill:#000000;stroke-width:0.101155" /></g><metadata
   id="metadata43"><rdf:RDF><cc:Work
       rdf:about=""><dc:format>image/svg+xml</dc:format><dc:type
         rdf:resource="http://purl.org/dc/dcmitype/StillImage" /></cc:Work></rdf:RDF></metadata><defs
   id="defs41"><clipPath
     clipPathUnits="userSpaceOnUse"
     id="clipPath24"><path
       d="m 11794.4,5026.5 c 0,0 77.1,-1387.4 1812.6,-1423 0,0 -1381.8,81.8 -1812.6,1423 z"
       id="path22" /></clipPath><linearGradient
     x1="0"
     y1="0"
     x2="1"
     y2="0"
     gradientUnits="userSpaceOnUse"
     gradientTransform="matrix(1102.93,-97.0125,-97.0125,-1102.93,15287.8,4083.9)"
     spreadMethod="pad"
     id="linearGradient32"><stop
       style="stop-opacity:1;stop-color:#00adef"
       offset="0"
       id="stop26" /><stop
       style="stop-opacity:1;stop-color:#00adef"
       offset="0.295699"
       id="stop28" /><stop
       style="stop-opacity:1;stop-color:#2c3892"
       offset="1"
       id="stop30" /></linearGradient><clipPath
     clipPathUnits="userSpaceOnUse"
     id="clipPath42"><path
       d="m 11763.2,5826.6 c 0,0 -528.9,-858.3 348.5,-1839 0,0 -676.7,812.2 -348.5,1839 z"
       id="path40" /></clipPath><linearGradient
     x1="0"
     y1="0"
     x2="1"
     y2="0"
     gradientUnits="userSpaceOnUse"
     gradientTransform="matrix(527.16,-666.996,-501.795,-594.804,13172.5,3340.5)"
     spreadMethod="pad"
     id="linearGradient50"><stop
       style="stop-opacity:1;stop-color:#00adef"
       offset="0"
       id="stop44" /><stop
       style="stop-opacity:1;stop-color:#00adef"
       offset="0.295699"
       id="stop46" /><stop
       style="stop-opacity:1;stop-color:#2c3892"
       offset="1"
       id="stop48" /></linearGradient><clipPath
     clipPathUnits="userSpaceOnUse"
     id="clipPath72"><path
       d="m 2588.92,5926.2 c 0,0 77.06,-1387.4 1812.53,-1423 0,0 -1381.79,81.8 -1812.53,1423 z"
       id="path70" /></clipPath><linearGradient
     x1="0"
     y1="0"
     x2="1"
     y2="0"
     gradientUnits="userSpaceOnUse"
     gradientTransform="matrix(1102.93,-97.0125,-97.0125,-1102.93,6082.28,4983.6)"
     spreadMethod="pad"
     id="linearGradient80"><stop
       style="stop-opacity:1;stop-color:#00adef"
       offset="0"
       id="stop74" /><stop
       style="stop-opacity:1;stop-color:#00adef"
       offset="0.295699"
       id="stop76" /><stop
       style="stop-opacity:1;stop-color:#2c3892"
       offset="1"
       id="stop78" /></linearGradient><clipPath
     clipPathUnits="userSpaceOnUse"
     id="clipPath90"><path
       d="m 2557.65,6726.3 c 0,0 -528.9,-858.3 348.55,-1839 0,0 -676.73,812.3 -348.55,1839 z"
       id="path88" /></clipPath><linearGradient
     x1="0"
     y1="0"
     x2="1"
     y2="0"
     gradientUnits="userSpaceOnUse"
     gradientTransform="matrix(527.16,-666.996,-501.795,-594.804,3967.03,4240.2)"
     spreadMethod="pad"
     id="linearGradient98"><stop
       style="stop-opacity:1;stop-color:#00adef"
       offset="0"
       id="stop92" /><stop
       style="stop-opacity:1;stop-color:#00adef"
       offset="0.295699"
       id="stop94" /><stop
       style="stop-opacity:1;stop-color:#2c3892"
       offset="1"
       id="stop96" /></linearGradient><clipPath
     clipPathUnits="userSpaceOnUse"
     id="clipPath110"><path
       d="m 12268.9,14695.1 c 0,0 488.2,-2310.6 3412.5,-1921.6 0,0 -2342.2,-219.9 -3412.5,1921.6 z"
       id="path108" /></clipPath><linearGradient
     x1="0"
     y1="0"
     x2="1"
     y2="0"
     gradientUnits="userSpaceOnUse"
     gradientTransform="matrix(1877.7,122.261,122.261,-1877.7,18380.5,14015.2)"
     spreadMethod="pad"
     id="linearGradient118"><stop
       style="stop-opacity:1;stop-color:#00adef"
       offset="0"
       id="stop112" /><stop
       style="stop-opacity:1;stop-color:#00adef"
       offset="0.295699"
       id="stop114" /><stop
       style="stop-opacity:1;stop-color:#2c3892"
       offset="1"
       id="stop116" /></linearGradient><clipPath
     clipPathUnits="userSpaceOnUse"
     id="clipPath128"><path
       d="m 15815.2,16419 c -93.9,4.2 -182.4,2.3 -266.1,-4.9 -314.7,-27.2 -559,-128.8 -745.9,-255.2 -405.3,-274.1 -540.8,-664.8 -540.8,-664.8 113.4,159.3 245.2,290.2 385,397.8 252.9,194.4 532.5,312.5 778.9,384.3 115.1,33.6 222.9,57 317.5,73.3 88.4,15.3 165.2,24.4 225.2,29.9 9.2,8.1 18.3,16.2 27.6,24.2 -62.5,7.7 -123,12.8 -181.4,15.4 z"
       id="path126" /></clipPath><linearGradient
     x1="0"
     y1="0"
     x2="1"
     y2="0"
     gradientUnits="userSpaceOnUse"
     gradientTransform="matrix(45643.7,12448.3,12448.3,-45643.7,-4296.91,10731.7)"
     spreadMethod="pad"
     id="linearGradient134"><stop
       style="stop-opacity:1;stop-color:#00adef"
       offset="0"
       id="stop130" /><stop
       style="stop-opacity:1;stop-color:#2c3892"
       offset="1"
       id="stop132" /></linearGradient><clipPath
     clipPathUnits="userSpaceOnUse"
     id="clipPath144"><path
       d="m 14060.1,14010 c -134.5,277.1 -200,602.2 -180.6,928.5 27.2,456.4 219.9,1043.4 940.1,1403.4 -913.5,-342 -1143.8,-1002.5 -1173.7,-1504.7 -19.4,-326.4 46.1,-651.5 180.6,-928.6 833.6,-1717.7 2656.1,-937.3 3006,-767.5 -617.9,-240.7 -2058.1,-602.9 -2772.4,868.9 z"
       id="path142" /></clipPath><linearGradient
     x1="0"
     y1="0"
     x2="1"
     y2="0"
     gradientUnits="userSpaceOnUse"
     gradientTransform="matrix(6161.75,1680.48,1680.48,-6161.75,13455.7,14066)"
     spreadMethod="pad"
     id="linearGradient150"><stop
       style="stop-opacity:1;stop-color:#00adef"
       offset="0"
       id="stop146" /><stop
       style="stop-opacity:1;stop-color:#2c3892"
       offset="1"
       id="stop148" /></linearGradient><clipPath
     clipPathUnits="userSpaceOnUse"
     id="clipPath160"><path
       d="m 15129.5,15957.6 c 0,0 496.1,418.4 1103.8,-95.2 0,0 -562.1,334.3 -1103.8,95.2 z"
       id="path158" /></clipPath><linearGradient
     x1="0"
     y1="0"
     x2="1"
     y2="0"
     gradientUnits="userSpaceOnUse"
     gradientTransform="matrix(3323.64,-920.891,-920.891,-3323.64,14686.1,16242.3)"
     spreadMethod="pad"
     id="linearGradient166"><stop
       style="stop-opacity:1;stop-color:#00adef"
       offset="0"
       id="stop162" /><stop
       style="stop-opacity:1;stop-color:#2c3892"
       offset="1"
       id="stop164" /></linearGradient><clipPath
     clipPathUnits="userSpaceOnUse"
     id="clipPath176"><path
       d="m 3295.49,13753.6 c 1451.93,-1428.9 3276.78,-606.3 3276.78,-606.3 -2246.89,-1119.2 -3276.78,606.3 -3276.78,606.3 z m -290.32,365.3 c 430.74,-1341.3 1812.53,-1423.1 1812.53,-1423.1 -1735.47,35.6 -1812.53,1423.1 -1812.53,1423.1 z M 2973.9,14919 C 2645.72,13892.2 3322.45,13079.9 3322.45,13079.9 2445,14060.6 2973.9,14919 2973.9,14919 Z m 4653.29,-370.1 c -442.85,-84.5 -987.83,-283.3 -1596.4,-704.2 0,0 -1999.71,-1408.2 -2707.57,390.8 -0.51,1.3 -0.77,1.9 -0.77,1.9 0.26,-0.6 0.52,-1.3 0.77,-1.9 25.21,-62.5 675.94,-1612.1 2624.78,-84.1 655.72,514.1 1201.94,714.2 1635.44,756.9 -51.73,229.6 -135.58,447 -246.61,647.3 522,341.4 1173.81,482.5 1173.81,482.5 -511.71,46.1 -1002.86,-196.2 -1254.21,-347.8 -0.39,0.6 -0.78,1.3 -1.17,1.9 -356.8,-210.9 -754.06,-531.5 -1150.74,-1018.5 0,0 -1528.42,-1909.4 -2709.28,-378.8 -0.85,1.1 -1.28,1.7 -1.28,1.7 0.43,-0.6 0.85,-1.1 1.28,-1.7 41.63,-53 1098.17,-1360.1 2544.36,650.2 380.61,529.1 750.35,855 1086.94,1049.3 -450.29,508.5 -1108.07,829.1 -1840.74,829.1 -1357.39,0 -2457.77,-1100.4 -2457.77,-2457.8 0,-1357.3 1100.38,-2457.7 2457.77,-2457.7 1357.39,0 2457.77,1100.4 2457.77,2457.7 0,14.9 -0.15,29.8 -0.42,44.7 433.05,118.4 814.79,137.4 814.79,137.4 -285.69,74 -580.16,53 -830.75,1.1 z"
       id="path174" /></clipPath><linearGradient
     x1="0"
     y1="0"
     x2="1"
     y2="0"
     gradientUnits="userSpaceOnUse"
     gradientTransform="matrix(5782.61,0,0,-5782.61,2728.03,14365.7)"
     spreadMethod="pad"
     id="linearGradient184"><stop
       style="stop-opacity:1;stop-color:#00adef"
       offset="0"
       id="stop178" /><stop
       style="stop-opacity:1;stop-color:#00adef"
       offset="0.295699"
       id="stop180" /><stop
       style="stop-opacity:1;stop-color:#2c3892"
       offset="1"
       id="stop182" /></linearGradient><clipPath
     clipPathUnits="userSpaceOnUse"
     id="clipPath24-4"><path
       d="m 11794.4,5026.5 c 0,0 77.1,-1387.4 1812.6,-1423 0,0 -1381.8,81.8 -1812.6,1423 z"
       id="path22-6" /></clipPath><clipPath
     clipPathUnits="userSpaceOnUse"
     id="clipPath42-5"><path
       d="m 11763.2,5826.6 c 0,0 -528.9,-858.3 348.5,-1839 0,0 -676.7,812.2 -348.5,1839 z"
       id="path40-5" /></clipPath><clipPath
     clipPathUnits="userSpaceOnUse"
     id="clipPath72-7"><path
       d="m 2588.92,5926.2 c 0,0 77.06,-1387.4 1812.53,-1423 0,0 -1381.79,81.8 -1812.53,1423 z"
       id="path70-3" /></clipPath><clipPath
     clipPathUnits="userSpaceOnUse"
     id="clipPath90-9"><path
       d="m 2557.65,6726.3 c 0,0 -528.9,-858.3 348.55,-1839 0,0 -676.73,812.3 -348.55,1839 z"
       id="path88-6" /></clipPath><clipPath
     clipPathUnits="userSpaceOnUse"
     id="clipPath110-5"><path
       d="m 12268.9,14695.1 c 0,0 488.2,-2310.6 3412.5,-1921.6 0,0 -2342.2,-219.9 -3412.5,1921.6 z"
       id="path108-9" /></clipPath><clipPath
     clipPathUnits="userSpaceOnUse"
     id="clipPath128-9"><path
       d="m 15815.2,16419 c -93.9,4.2 -182.4,2.3 -266.1,-4.9 -314.7,-27.2 -559,-128.8 -745.9,-255.2 -405.3,-274.1 -540.8,-664.8 -540.8,-664.8 113.4,159.3 245.2,290.2 385,397.8 252.9,194.4 532.5,312.5 778.9,384.3 115.1,33.6 222.9,57 317.5,73.3 88.4,15.3 165.2,24.4 225.2,29.9 9.2,8.1 18.3,16.2 27.6,24.2 -62.5,7.7 -123,12.8 -181.4,15.4 z"
       id="path126-1" /></clipPath><clipPath
     clipPathUnits="userSpaceOnUse"
     id="clipPath144-7"><path
       d="m 14060.1,14010 c -134.5,277.1 -200,602.2 -180.6,928.5 27.2,456.4 219.9,1043.4 940.1,1403.4 -913.5,-342 -1143.8,-1002.5 -1173.7,-1504.7 -19.4,-326.4 46.1,-651.5 180.6,-928.6 833.6,-1717.7 2656.1,-937.3 3006,-767.5 -617.9,-240.7 -2058.1,-602.9 -2772.4,868.9 z"
       id="path142-4" /></clipPath><clipPath
     clipPathUnits="userSpaceOnUse"
     id="clipPath160-0"><path
       d="m 15129.5,15957.6 c 0,0 496.1,418.4 1103.8,-95.2 0,0 -562.1,334.3 -1103.8,95.2 z"
       id="path158-9" /></clipPath><clipPath
     clipPathUnits="userSpaceOnUse"
     id="clipPath176-8"><path
       d="m 3295.49,13753.6 c 1451.93,-1428.9 3276.78,-606.3 3276.78,-606.3 -2246.89,-1119.2 -3276.78,606.3 -3276.78,606.3 z m -290.32,365.3 c 430.74,-1341.3 1812.53,-1423.1 1812.53,-1423.1 -1735.47,35.6 -1812.53,1423.1 -1812.53,1423.1 z M 2973.9,14919 C 2645.72,13892.2 3322.45,13079.9 3322.45,13079.9 2445,14060.6 2973.9,14919 2973.9,14919 Z m 4653.29,-370.1 c -442.85,-84.5 -987.83,-283.3 -1596.4,-704.2 0,0 -1999.71,-1408.2 -2707.57,390.8 -0.51,1.3 -0.77,1.9 -0.77,1.9 0.26,-0.6 0.52,-1.3 0.77,-1.9 25.21,-62.5 675.94,-1612.1 2624.78,-84.1 655.72,514.1 1201.94,714.2 1635.44,756.9 -51.73,229.6 -135.58,447 -246.61,647.3 522,341.4 1173.81,482.5 1173.81,482.5 -511.71,46.1 -1002.86,-196.2 -1254.21,-347.8 -0.39,0.6 -0.78,1.3 -1.17,1.9 -356.8,-210.9 -754.06,-531.5 -1150.74,-1018.5 0,0 -1528.42,-1909.4 -2709.28,-378.8 -0.85,1.1 -1.28,1.7 -1.28,1.7 0.43,-0.6 0.85,-1.1 1.28,-1.7 41.63,-53 1098.17,-1360.1 2544.36,650.2 380.61,529.1 750.35,855 1086.94,1049.3 -450.29,508.5 -1108.07,829.1 -1840.74,829.1 -1357.39,0 -2457.77,-1100.4 -2457.77,-2457.8 0,-1357.3 1100.38,-2457.7 2457.77,-2457.7 1357.39,0 2457.77,1100.4 2457.77,2457.7 0,14.9 -0.15,29.8 -0.42,44.7 433.05,118.4 814.79,137.4 814.79,137.4 -285.69,74 -580.16,53 -830.75,1.1 z"
       id="path174-2" /></clipPath><linearGradient
     x1="0"
     y1="0"
     x2="1"
     y2="0"
     gradientUnits="userSpaceOnUse"
     gradientTransform="matrix(5782.61,0,0,-5782.61,2728.03,14365.7)"
     spreadMethod="pad"
     id="linearGradient184-3"><stop
       style="stop-opacity:1;stop-color:#00adef"
       offset="0"
       id="stop178-5" /><stop
       style="stop-opacity:1;stop-color:#00adef"
       offset="0.295699"
       id="stop180-0" /><stop
       style="stop-opacity:1;stop-color:#2c3892"
       offset="1"
       id="stop182-2" /></linearGradient></defs><sodipodi:namedview
   pagecolor="#ffffff"
   bordercolor="#666666"
   borderopacity="1"
   objecttolerance="10"
   gridtolerance="10"
   guidetolerance="10"
   inkscape:pageopacity="0"
   inkscape:pageshadow="2"
   inkscape:window-width="3840"
   inkscape:window-height="2126"
   id="namedview39"
   showgrid="false"
   inkscape:zoom="0.1767767"
   inkscape:cx="-1561.2918"
   inkscape:cy="4174.7584"
   inkscape:window-x="-11"
   inkscape:window-y="-11"
   inkscape:window-maximized="1"
   inkscape:current-layer="Layer_1"
   fit-margin-top="100"
   fit-margin-left="100"
   fit-margin-right="100"
   fit-margin-bottom="100"
   inkscape:pagecheckerboard="0" /><g
   id="g9"
   transform="translate(-374.6169,3018.2199)"
   style="stroke:#4ba6c2;stroke-opacity:1" /><g
   id="g11"
   transform="translate(-374.6169,3018.2199)"
   style="stroke:#4ba6c2;stroke-opacity:1" /><g
   id="g13"
   transform="translate(-374.6169,3018.2199)"
   style="stroke:#4ba6c2;stroke-opacity:1" /><g
   id="g15"
   transform="translate(-374.6169,3018.2199)"
   style="stroke:#4ba6c2;stroke-opacity:1" /><g
   id="g17"
   transform="translate(-374.6169,3018.2199)"
   style="stroke:#4ba6c2;stroke-opacity:1" /><g
   id="g19"
   transform="translate(-374.6169,3018.2199)"
   style="stroke:#4ba6c2;stroke-opacity:1" /><g
   id="g21"
   transform="translate(-374.6169,3018.2199)"
   style="stroke:#4ba6c2;stroke-opacity:1" /><g
   id="g23"
   transform="translate(-374.6169,3018.2199)"
   style="stroke:#4ba6c2;stroke-opacity:1" /><g
   id="g25"
   transform="translate(-374.6169,3018.2199)"
   style="stroke:#4ba6c2;stroke-opacity:1" /><g
   id="g27"
   transform="translate(-374.6169,3018.2199)"
   style="stroke:#4ba6c2;stroke-opacity:1" /><g
   id="g29"
   transform="translate(-374.6169,3018.2199)"
   style="stroke:#4ba6c2;stroke-opacity:1" /><g
   id="g31"
   transform="translate(-374.6169,3018.2199)"
   style="stroke:#4ba6c2;stroke-opacity:1" /><g
   id="g33"
   transform="translate(-374.6169,3018.2199)"
   style="stroke:#4ba6c2;stroke-opacity:1" /><g
   id="g35"
   transform="translate(-374.6169,3018.2199)"
   style="stroke:#4ba6c2;stroke-opacity:1" /><g
   id="g37"
   transform="translate(-374.6169,3018.2199)"
   style="stroke:#4ba6c2;stroke-opacity:1" /><text
   xml:space="preserve"
   style="font-style:normal;font-weight:normal;font-size:62.8797px;line-height:125%;font-family:sans-serif;letter-spacing:0px;word-spacing:0px;fill:#5939d8;fill-opacity:1;stroke:#5939d8;stroke-width:22.3845;stroke-linecap:butt;stroke-linejoin:miter;stroke-miterlimit:4;stroke-dasharray:none;stroke-opacity:1"
   x="230.99907"
   y="2504.929"
   id="text4189"><tspan
     sodipodi:role="line"
     id="tspan4191"
     x="230.99907"
     y="2504.929"
     style="font-style:normal;font-variant:normal;font-weight:normal;font-stretch:normal;font-size:982.496px;font-family:Candara;-inkscape-font-specification:Candara;fill:#5939d8;fill-opacity:1;stroke:#5939d8;stroke-width:22.3845;stroke-miterlimit:4;stroke-dasharray:none;stroke-opacity:1">GIST</tspan></text>
</svg>
